<?xml version="1.0" encoding="utf-8"?>
<!-- Generator: Adobe Illustrator 16.0.0, SVG Export Plug-In . SVG Version: 6.00 Build 0)  -->
<!DOCTYPE svg PUBLIC "-//W3C//DTD SVG 1.1//EN" "http://www.w3.org/Graphics/SVG/1.1/DTD/svg11.dtd">
<svg version="1.1" id="Layer_1" xmlns="http://www.w3.org/2000/svg" xmlns:xlink="http://www.w3.org/1999/xlink" x="0px" y="0px"
	 width="28px" height="28px" viewBox="0 0 28 28" enable-background="new 0 0 28 28" xml:space="preserve">
<g>
	<path fill="#FFE812" d="M28,25.813C28,27.021,27.021,28,25.813,28H2.188C0.979,28,0,27.021,0,25.813V2.188C0,0.979,0.979,0,2.188,0
		h23.625C27.021,0,28,0.979,28,2.188V25.813z"/>
	<path d="M14,3.938c-6.282,0-11.375,4.016-11.375,8.969c0,3.203,2.129,6.012,5.332,7.6c-0.174,0.6-1.12,3.865-1.158,4.121
		c0,0-0.022,0.193,0.103,0.267c0.125,0.073,0.271,0.017,0.271,0.017c0.358-0.05,4.15-2.714,4.806-3.176
		c0.656,0.092,1.331,0.141,2.021,0.141c6.282,0,11.375-4.016,11.375-8.969S20.282,3.938,14,3.938z"/>
</g>
</svg>
